<?xml version="1.0" encoding="iso-8859-1"?>
<!DOCTYPE svg PUBLIC "-//W3C//DTD SVG 1.1//EN" "http://www.w3.org/Graphics/SVG/1.1/DTD/svg11.dtd">
<svg 
 version="1.1" xmlns="http://www.w3.org/2000/svg" xmlns:xlink="http://www.w3.org/1999/xlink" x="0px" y="0px" width="512px"
	 height="512px" viewBox="0 0 512 512" style="enable-background:new 0 0 512 512;" xml:space="preserve"
><g id="afcae5a789ccd549f9c6e2a2f8083b6a"><g></g><g fill="#c6c6c6"><path style="display: inline;" d="M120.832,90.606L90.437,60.213c39.587-33.505,89.44-55.19,144.193-59.713v42.858
		C191.713,47.643,152.5,64.677,120.832,90.606z M277.368,468.644V511.5c54.753-4.521,104.615-26.209,144.198-59.713l-30.391-30.391
		C359.508,447.325,320.294,464.357,277.368,468.644z M391.176,90.606l30.391-30.393C381.983,26.708,332.121,5.023,277.368,0.5
		v42.858C320.294,47.643,359.508,64.677,391.176,90.606z M468.644,277.368c-4.281,42.921-21.318,82.134-47.247,113.803
		l30.391,30.396c33.504-39.588,55.191-89.445,59.713-144.198H468.644z M468.644,234.629H511.5
		c-4.521-54.753-26.209-104.608-59.713-144.193l-30.391,30.393C447.325,152.498,464.362,191.711,468.644,234.629z M90.606,120.83
		l-30.39-30.393C26.708,130.021,5.023,179.876,0.5,234.629h42.858C47.643,191.711,64.677,152.498,90.606,120.83z M120.832,421.396
		l-30.396,30.391c39.587,33.504,89.44,55.191,144.193,59.713v-42.856C191.713,464.357,152.5,447.325,120.832,421.396z
		 M43.358,277.368H0.5c4.523,54.753,26.208,104.61,59.716,144.198l30.39-30.396C64.677,359.502,47.643,320.289,43.358,277.368z"></path></g></g></svg>